<svg id="Layer_1" data-name="Layer 1" xmlns="http://www.w3.org/2000/svg" viewBox="0 0 558.095 463.12">
  <g>
    <path d="M555.536,315.371c-15.243-76.866-104.547-138.3-121.965-218.4C401.914-4.938,297.57-21.05,229.765,23.209c-107.437,70.129,7.176,87.532-203.473,253.453-52.014,40.969-35.44,221.817,128.193,180.313,88.06-22.336,114.83-25.47,154.44-29.148C408.763,418.558,581.123,444.4,555.536,315.371Z" fill="#367cff" opacity="0.1"></path>
    <g>
      <path d="M369.941,381.105H147.923a42.97,42.97,0,0,1-42.35-35.7L75.063,167.679H442.8L412.29,345.405A42.968,42.968,0,0,1,369.941,381.105Z" fill="#367cff"></path>
      <g>
        <rect x="58.417" y="150.536" width="401.03" height="31.702" rx="15.851" fill="#fff"></rect>
        <path d="M443.6,183.489H74.268a17.1,17.1,0,0,1,0-34.2H443.6a17.1,17.1,0,0,1,0,34.2Zm-369.328-31.7a14.6,14.6,0,0,0,0,29.2H443.6a14.6,14.6,0,0,0,0-29.2Z" fill="#262626"></path>
      </g>
      <g>
        <g>
          <g>
            <rect x="340.565" y="50.921" width="24.02" height="137.568" rx="12.01" transform="translate(553.993 432.865) rotate(-141.501)" fill="#fff"></rect>
            <path d="M317.207,177.4a13.153,13.153,0,0,1-8.228-2.885h0a13.274,13.274,0,0,1-2.123-18.631l70.683-88.866a13.26,13.26,0,1,1,20.755,16.51l-70.682,88.865a13.175,13.175,0,0,1-8.877,4.92A13.547,13.547,0,0,1,317.207,177.4Zm-6.672-4.841a10.76,10.76,0,0,0,15.12-1.723L396.337,81.97a10.76,10.76,0,1,0-16.841-13.4l-70.683,88.865a10.772,10.772,0,0,0,1.722,15.119Z" fill="#262626"></path>
          </g>
          <g>
            <circle cx="316.43" cy="165.148" r="4.526" fill="#fff"></circle>
            <path d="M316.443,170.925a5.784,5.784,0,0,1-5.679-6.9h0a5.775,5.775,0,1,1,5.679,6.9Zm-3.226-6.414a3.277,3.277,0,1,0,1.392-2.085,3.28,3.28,0,0,0-1.392,2.085Z" fill="#262626"></path>
          </g>
        </g>
        <g>
          <g>
            <rect x="153.279" y="50.921" width="24.02" height="137.568" rx="12.01" transform="translate(-38.586 128.913) rotate(-38.499)" fill="#fff"></rect>
            <path d="M200.644,177.392a13.242,13.242,0,0,1-10.391-5L119.569,83.527a13.26,13.26,0,0,1,20.755-16.51l70.684,88.866a13.254,13.254,0,0,1-10.364,21.509ZM129.936,64.516a10.757,10.757,0,0,0-8.41,17.454l70.683,88.865a10.772,10.772,0,0,0,15.119,1.723h0a10.759,10.759,0,0,0,1.723-15.119L138.368,68.574A10.749,10.749,0,0,0,129.936,64.516Z" fill="#262626"></path>
          </g>
          <g>
            <circle cx="201.434" cy="165.148" r="4.526" fill="#fff"></circle>
            <path d="M201.422,170.925a5.777,5.777,0,1,1,5.677-6.9h0a5.783,5.783,0,0,1-5.677,6.9Zm.019-9.054a3.276,3.276,0,1,0,3.206,2.64h0a3.279,3.279,0,0,0-3.206-2.64Z" fill="#262626"></path>
          </g>
        </g>
      </g>
      <rect x="249.573" y="228.623" width="18.717" height="107.199" rx="9.359" fill="#fff"></rect>
      <rect x="167.018" y="228.623" width="18.717" height="107.199" rx="9.359" transform="translate(-41.268 30.451) rotate(-8.838)" fill="#fff"></rect>
      <rect x="334.062" y="228.623" width="18.717" height="107.199" rx="9.359" transform="translate(639.402 613.858) rotate(-171.162)" fill="#fff"></rect>
      <g>
        <circle cx="411.372" cy="362.124" r="55.228" fill="#fff"></circle>
        <path d="M411.371,418.6a56.478,56.478,0,1,1,56.479-56.477A56.542,56.542,0,0,1,411.371,418.6Zm0-110.456a53.978,53.978,0,1,0,53.979,53.979A54.039,54.039,0,0,0,411.371,308.146Z" fill="#262626"></path>
      </g>
      <path d="M411.33,390.416a15.414,15.414,0,0,1-13.428-7.267q-4.932-7.266-4.93-21.034t4.93-20.781a16.336,16.336,0,0,1,26.857.042q4.927,7.056,4.929,20.739,0,13.767-4.929,21.034A15.421,15.421,0,0,1,411.33,390.416Zm0-7.648a6.558,6.558,0,0,0,3.612-1.063,8.355,8.355,0,0,0,2.848-3.527,24.6,24.6,0,0,0,1.869-6.375,57.892,57.892,0,0,0,.68-9.688,56.515,56.515,0,0,0-.68-9.562,23.216,23.216,0,0,0-1.869-6.248,7.8,7.8,0,0,0-2.848-3.357,7.165,7.165,0,0,0-7.224,0,7.777,7.777,0,0,0-2.847,3.357,23.07,23.07,0,0,0-1.87,6.248,56.411,56.411,0,0,0-.68,9.562A57.786,57.786,0,0,0,403,371.8a24.44,24.44,0,0,0,1.87,6.375,8.331,8.331,0,0,0,2.847,3.527A6.551,6.551,0,0,0,411.33,382.768Z" fill="#367cff"></path>
    </g>
  </g>
</svg>